<svg width="1200" height="420" viewBox="0 0 1200 420" xmlns="http://www.w3.org/2000/svg" role="img" aria-label="SettingTestApp banner">
  <defs>
    <linearGradient id="bg" x1="0" y1="0" x2="1" y2="1">
      <stop offset="0%" stop-color="#0F172A" />
      <stop offset="100%" stop-color="#111827" />
    </linearGradient>
    <linearGradient id="accent" x1="0" y1="0" x2="1" y2="0">
      <stop offset="0%" stop-color="#4CC9F0" />
      <stop offset="100%" stop-color="#80FFDB" />
    </linearGradient>
    <linearGradient id="glow" x1="0" y1="0" x2="0" y2="1">
      <stop offset="0%" stop-color="#38BDF8" stop-opacity="0.55" />
      <stop offset="100%" stop-color="#22D3EE" stop-opacity="0" />
    </linearGradient>
  </defs>

  <rect width="1200" height="420" fill="url(#bg)" />
  <rect x="0" y="0" width="1200" height="420" fill="url(#glow)" />

  <circle cx="1010" cy="90" r="70" fill="#1E293B" />
  <circle cx="1010" cy="90" r="36" fill="url(#accent)" opacity="0.7" />
  <circle cx="1080" cy="180" r="110" fill="#0B1220" opacity="0.7" />
  <circle cx="1080" cy="180" r="58" fill="#38BDF8" opacity="0.25" />

  <rect x="80" y="70" width="110" height="110" rx="24" fill="#0B1220" stroke="#38BDF8" stroke-width="2" />
  <path d="M118 96c-10 0-18 8-18 18v14h14v-14h8v14h14v-14c0-10-8-18-18-18z" fill="#38BDF8" />
  <path d="M96 146h58v18H96z" fill="#1E293B" />

  <text x="220" y="140" fill="#F8FAFC" font-size="56" font-weight="700" font-family="SF Pro Display, Segoe UI, Roboto, Arial, sans-serif">SettingTestApp</text>
  <text x="220" y="190" fill="#CBD5F5" font-size="22" font-family="SF Pro Display, Segoe UI, Roboto, Arial, sans-serif">High-Accuracy Location Permission Demo</text>

  <g font-family="SF Pro Display, Segoe UI, Roboto, Arial, sans-serif" font-size="16" fill="#E2E8F0">
    <rect x="220" y="230" width="138" height="34" rx="17" fill="#0B1220" stroke="#38BDF8" stroke-width="1.5" />
    <text x="246" y="252">Compose</text>

    <rect x="374" y="230" width="170" height="34" rx="17" fill="#0B1220" stroke="#4CC9F0" stroke-width="1.5" />
    <text x="398" y="252">Permission Flow</text>

    <rect x="560" y="230" width="184" height="34" rx="17" fill="#0B1220" stroke="#80FFDB" stroke-width="1.5" />
    <text x="586" y="252">System Settings</text>
  </g>

  <rect x="220" y="290" width="440" height="8" rx="4" fill="url(#accent)" />
</svg>
